<?xml version="1.0" encoding="UTF-8"?>
<svg width="74px" height="74px" viewBox="0 0 74 74" version="1.1" xmlns="http://www.w3.org/2000/svg" xmlns:xlink="http://www.w3.org/1999/xlink">
    <!-- Generator: Sketch 43.2 (39069) - http://www.bohemiancoding.com/sketch -->
    <title>Shopkeeper Logo</title>
    <desc>Created with Sketch.</desc>
    <defs></defs>
    <g id="3.-GetBowtied-Tools" stroke="none" stroke-width="1" fill="none" fill-rule="evenodd">
        <g id="Product-Activation" transform="translate(-221.000000, -82.000000)" fill="#FF7657">
            <g id="Shopkeeper-Logo" transform="translate(221.000000, 82.000000)">
                <path d="M53.4795944,28.4194944 L48.8885111,40.0929944 C48.5925111,40.6911611 48.2965111,40.9902444 47.7034833,40.9902444 L29.1932056,43.3859944 L28.8961778,43.3859944 C28.3041778,43.3859944 27.7121778,43.0869111 27.5641778,42.3376611 L23.1210944,24.6773556 L19.7150389,24.6773556 C18.9750389,24.6773556 18.2340111,23.7801056 18.2340111,23.1809111 C18.2340111,22.5827444 18.8260111,21.8345222 19.7150389,21.8345222 L24.3061222,21.8345222 C25.0461222,21.8345222 25.6381222,22.1336056 25.6381222,22.8818278 L30.0812056,40.24305 L46.5194833,38.1474111 L49.9255389,29.3177722 L33.6352611,29.3177722 C33.0432611,29.3177722 32.3032611,28.56955 32.3032611,27.9703556 C32.3032611,27.3711611 32.8952611,26.6229389 33.6352611,26.6229389 L52.1465667,26.6229389 C52.7385667,26.6229389 53.1835944,26.92305 53.4795944,27.3711611 C53.7755944,27.6712722 53.7755944,28.4194944 53.4795944,28.4194944 M46.3714833,51.1683278 C44.9798722,51.1683278 43.8534278,50.0285222 43.8534278,48.62355 C43.8534278,47.2185778 44.9798722,46.0798 46.3714833,46.0798 C47.7620667,46.0798 48.8885111,47.2185778 48.8885111,48.62355 C48.8885111,50.0285222 47.7620667,51.1683278 46.3714833,51.1683278 M29.3412056,51.1683278 C27.9506222,51.1683278 26.82315,50.0285222 26.82315,48.62355 C26.82315,47.2185778 27.9506222,46.0798 29.3412056,46.0798 C30.7307611,46.0798 31.8582333,47.2185778 31.8582333,48.62355 C31.8582333,50.0285222 30.7307611,51.1683278 29.3412056,51.1683278 M72.1389,18.1684389 C70.5777056,9.78382778 63.9927333,3.37049444 55.7664,1.80724444 C49.5134,0.576994444 43.1761222,0.000411111112 37.0063722,0.000411111112 C30.6701222,0.000411111112 24.3338722,0.576994444 18.0819,1.80724444 C9.68906667,3.37049444 3.35384444,9.86605 1.78956667,18.0872444 C-0.595905556,30.5819389 -0.595905556,43.3274111 1.78956667,55.7409111 C3.35281667,64.2087722 9.85248333,70.5388556 18.0819,72.1031333 C24.3338722,73.4156056 30.6701222,73.9932167 37.0063722,73.9932167 C43.3415944,73.9932167 49.5935667,73.4156056 55.8475944,72.1843278 C64.2414556,70.5388556 70.5777056,64.12655 72.1389,55.8241611 C74.60865,43.3263833 74.60865,30.5819389 72.1389,18.1684389" id="Fill-1"></path>
            </g>
        </g>
    </g>
</svg>