<?xml version="1.0" encoding="UTF-8"?>
<svg width="119px" height="86px" viewBox="0 0 119 86" version="1.1" xmlns="http://www.w3.org/2000/svg" xmlns:xlink="http://www.w3.org/1999/xlink">
    <!-- Generator: Sketch 47.1 (45422) - http://www.bohemiancoding.com/sketch -->
    <title>theme-logo</title>
    <desc>Created with Sketch.</desc>
    <defs></defs>
    <g id="Page-1" stroke="none" stroke-width="1" fill="none" fill-rule="evenodd">
        <g id="wp-svg-logo" transform="translate(-11.000000, -30.000000)">
            <g id="theme-logo" transform="translate(11.000000, 30.000000)">
                <g id="Group" transform="translate(0.000000, 62.000000)" fill="#FFFFFF">
                    <path d="M0,8.245497 L2.43233531,8.245497 L2.64201938,9.9533022 L2.79578771,9.9533022 C3.40154474,9.32710383 4.10747408,8.84560245 4.91359689,8.50878363 C5.71971971,8.17196481 6.57475624,8.00355793 7.47873212,8.00355793 C9.02574238,8.00355793 10.2418979,8.45659617 11.1272351,9.36268624 C12.0125723,10.2687763 12.4552342,11.7037927 12.4552342,13.6677785 L12.4552342,23.7295975 L9.54761502,23.7295975 L9.54761502,13.8243273 C9.54761502,12.676297 9.30298604,11.853238 8.81372075,11.3551256 C8.32445545,10.8570133 7.61386651,10.6079609 6.68193262,10.6079609 C6.00162088,10.6079609 5.31898954,10.7573923 4.63401812,11.0562597 C3.94904671,11.3551271 3.37358616,11.8081654 2.90761922,12.415388 L2.90761922,23.7295975 L0,23.7295975 L0,8.245497 Z M24.5260477,8.55859462 C25.4253639,8.92862093 26.098676,9.54057834 26.5460043,10.3944852 C26.9933325,11.2483921 27.2169933,12.4058929 27.2169933,13.8670225 L27.2169933,23.7295975 L24.798637,23.7295975 L24.5889529,22.0502557 L24.4212056,22.0502557 C23.9459193,22.6764541 23.3355118,23.1555835 22.5899647,23.4876584 C21.8444176,23.8197333 21.0289876,23.9857683 20.1436504,23.9857683 C19.1744392,23.9857683 18.3380411,23.8126175 17.634431,23.4663109 C16.9308209,23.1200042 16.3903073,22.6218993 16.0128741,21.9719813 C15.6354409,21.3220633 15.4467271,20.5606744 15.4467271,19.6877919 C15.4467271,18.2835895 15.9080274,17.1972464 16.830642,16.4287303 C17.7532566,15.6602141 19.2117112,15.1905723 21.2060498,15.019791 L24.3652899,14.6924616 L24.3652899,13.7104736 C24.3652899,12.8470789 24.2324913,12.1734514 23.9668901,11.6895708 C23.701289,11.2056903 23.2959038,10.8617607 22.7507225,10.6577718 C22.2055411,10.453783 21.485633,10.3517901 20.5909765,10.3517901 C19.9665808,10.3517901 19.2932686,10.4063444 18.5710198,10.5154547 C17.8487711,10.6245651 17.1521609,10.792972 16.4811685,11.0206805 L16.4811685,8.68668001 C17.1335223,8.46845936 17.869739,8.30005248 18.6898408,8.1814543 C19.5099426,8.06285613 20.2927554,8.00355793 21.0383025,8.00355793 C22.4641614,8.00355793 23.6267315,8.18856831 24.5260477,8.55859462 Z M22.7996487,21.4169446 C23.3867671,21.1560286 23.9086423,20.750429 24.3652899,20.2001334 L24.3652899,16.5425839 L21.4436917,16.8414499 C20.3626484,16.9553041 19.5775059,17.22096 19.0882406,17.6384256 C18.5989753,18.0558912 18.3543463,18.6441293 18.3543463,19.4031577 C18.3543463,20.1906496 18.5756773,20.7883754 19.0183459,21.1963531 C19.4610145,21.6043309 20.1156882,21.8083167 20.9823867,21.8083167 C21.6067825,21.8083167 22.2125304,21.6778606 22.7996487,21.4169446 Z M39.6023329,21.2675117 L39.6023329,23.7153658 C38.7356343,23.9051229 37.9062256,24 37.1140818,24 C33.6659264,24 31.9418746,22.2163102 31.9418746,18.648877 L31.9418746,10.6364243 L29.2020026,10.6364243 L29.2020026,8.245497 L31.9418746,8.245497 L32.4451163,2.66666667 L34.8494938,2.66666667 L34.8494938,8.245497 L39.4066277,8.245497 L39.4066277,10.6364243 L34.8494938,10.6364243 L34.8494938,18.1792306 C34.8494938,19.3841881 35.0871333,20.2380821 35.5624196,20.7409384 C36.0377059,21.2437947 36.7879015,21.495219 37.8130287,21.495219 C38.316273,21.495219 38.9127018,21.4193173 39.6023329,21.2675117 Z M43.0411517,22.6408717 C42.1558145,21.7442695 41.7131526,20.3139969 41.7131526,18.3500111 L41.7131526,8.245497 L44.6207718,8.245497 L44.6207718,18.1792306 C44.6207718,19.3177731 44.8654008,20.1360882 45.3546661,20.6342006 C45.8439314,21.1323129 46.5358819,21.3813654 47.4305384,21.3813654 C48.1015309,21.3813654 48.7725132,21.2319339 49.4435056,20.9330665 C50.114498,20.6341991 50.6783096,20.1859047 51.1349572,19.5881699 L51.1349572,8.245497 L54.0425764,8.245497 L54.0425764,23.7295975 L51.6102411,23.7295975 L51.400557,22.0644874 L51.2467887,22.0644874 C50.6410316,22.7001737 49.9467513,23.1793031 49.1639268,23.5018901 C48.3811024,23.8244772 47.5516936,23.9857683 46.6756758,23.9857683 C45.1379848,23.9857683 43.9264889,23.5374739 43.0411517,22.6408717 Z M57.984637,8.245497 L60.4029934,8.245497 L60.6266564,10.309095 L60.7944037,10.309095 C61.26969,9.57853018 61.8894167,9.02349904 62.6536025,8.64398488 C63.4177883,8.26447071 64.2378778,8.07471648 65.1138957,8.07471648 C65.5332659,8.07471648 65.9433107,8.11266732 66.3440423,8.18857016 L66.3440423,10.9068268 C65.924672,10.8404118 65.4633717,10.8072048 64.9601274,10.8072048 C64.1959416,10.8072048 63.4387566,10.9779836 62.6885499,11.3195464 C61.9383431,11.6611091 61.3395845,12.1449824 60.8922563,12.7711808 L60.8922563,23.7295975 L57.984637,23.7295975 L57.984637,8.245497 Z M76.751362,8.55859462 C77.6506782,8.92862093 78.3239904,9.54057834 78.7713186,10.3944852 C79.2186469,11.2483921 79.4423077,12.4058929 79.4423077,13.8670225 L79.4423077,23.7295975 L77.0239513,23.7295975 L76.8142672,22.0502557 L76.64652,22.0502557 C76.1712337,22.6764541 75.5608262,23.1555835 74.815279,23.4876584 C74.0697319,23.8197333 73.254302,23.9857683 72.3689648,23.9857683 C71.3997535,23.9857683 70.5633554,23.8126175 69.8597453,23.4663109 C69.1561352,23.1200042 68.6156217,22.6218993 68.2381885,21.9719813 C67.8607552,21.3220633 67.6720414,20.5606744 67.6720414,19.6877919 C67.6720414,18.2835895 68.1333418,17.1972464 69.0559564,16.4287303 C69.9785709,15.6602141 71.4370256,15.1905723 73.4313641,15.019791 L76.5906042,14.6924616 L76.5906042,13.7104736 C76.5906042,12.8470789 76.4578056,12.1734514 76.1922045,11.6895708 C75.9266033,11.2056903 75.5212182,10.8617607 74.9760368,10.6577718 C74.4308555,10.453783 73.7109474,10.3517901 72.8162908,10.3517901 C72.1918951,10.3517901 71.518583,10.4063444 70.7963342,10.5154547 C70.0740854,10.6245651 69.3774753,10.792972 68.7064829,11.0206805 L68.7064829,8.68668001 C69.3588366,8.46845936 70.0950534,8.30005248 70.9151552,8.1814543 C71.735257,8.06285613 72.5180697,8.00355793 73.2636169,8.00355793 C74.6894757,8.00355793 75.8520458,8.18856831 76.751362,8.55859462 Z M75.0249631,21.4169446 C75.6120815,21.1560286 76.1339566,20.750429 76.5906042,20.2001334 L76.5906042,16.5425839 L73.6690061,16.8414499 C72.5879628,16.9553041 71.8028202,17.22096 71.3135549,17.6384256 C70.8242896,18.0558912 70.5796607,18.6441293 70.5796607,19.4031577 C70.5796607,20.1906496 70.8009916,20.7883754 71.2436602,21.1963531 C71.6863288,21.6043309 72.3410026,21.8083167 73.2077011,21.8083167 C73.8320968,21.8083167 74.4378448,21.6778606 75.0249631,21.4169446 Z" id="natura"></path>
                    <path d="M83.6923077,23.0515298 L83.6923077,0.281803543 L86.5554656,0.281803543 L86.5554656,23.0515298 L83.6923077,23.0515298 Z M90.4510121,23.0515298 L90.4510121,7.72141707 L93.3279352,7.72141707 L93.3279352,23.0515298 L90.4510121,23.0515298 Z M90.4923077,4.29750403 C90.1711185,4.00630558 90.0105263,3.58830117 90.0105263,3.04347826 C90.0105263,2.49865535 90.1711185,2.07595427 90.4923077,1.77536232 C90.8134969,1.47477037 91.2815084,1.32447665 91.8963563,1.32447665 C92.5112042,1.32447665 92.9792157,1.47477037 93.3004049,1.77536232 C93.621594,2.07595427 93.7821862,2.49865535 93.7821862,3.04347826 C93.7821862,3.58830117 93.621594,4.00630558 93.3004049,4.29750403 C92.9792157,4.58870248 92.5112042,4.73429952 91.8963563,4.73429952 C91.2815084,4.73429952 90.8134969,4.58870248 90.4923077,4.29750403 Z M101.896761,3.17733494 C101.359916,3.68928061 101.091498,4.52294108 101.091498,5.67834138 L101.091498,7.72141707 L105.578947,7.72141707 L105.578947,10.0885668 L101.091498,10.0885668 L101.091498,23.0515298 L98.2421053,23.0515298 L98.2421053,10.0885668 L95.5441296,10.0885668 L95.5441296,7.72141707 L98.2421053,7.72141707 L98.2421053,5.81924316 C98.2421053,3.93114998 98.739941,2.48926961 99.7356275,1.49355878 C100.731314,0.497847947 102.183526,0 104.092308,0 C104.798924,0 105.491764,0.0563601449 106.17085,0.169082126 L106.17085,2.56441224 C105.629417,2.46108376 105.051285,2.40942029 104.436437,2.40942029 C103.280156,2.40942029 102.433606,2.66538928 101.896761,3.17733494 Z M119,16.3023349 L109.584615,16.3023349 C109.621323,17.4483417 109.816328,18.3641941 110.169636,19.0499195 C110.522944,19.7356449 111.04831,20.2334928 111.745749,20.5434783 C112.443188,20.8534637 113.35627,21.0084541 114.48502,21.0084541 C115.55871,21.0084541 116.811329,20.8158903 118.242915,20.4307568 L118.242915,22.7415459 C116.792975,23.1360728 115.421059,23.3333333 114.127126,23.3333333 C111.603496,23.3333333 109.73145,22.6992817 108.510931,21.4311594 C107.290412,20.1630371 106.680162,18.1434653 106.680162,15.3723833 C106.680162,12.7797777 107.233058,10.816566 108.338866,9.48268921 C109.444675,8.14881244 111.002419,7.48188406 113.012146,7.48188406 C114.957635,7.48188406 116.441965,8.1464641 117.465182,9.47564412 C118.488399,10.8048241 119,12.7985643 119,15.4569243 L119,16.3023349 Z M110.486235,10.6451288 C109.912683,11.4106989 109.607558,12.6764539 109.57085,14.4424316 L116.302024,14.4424316 C116.265317,12.6764539 115.973957,11.4106989 115.427935,10.6451288 C114.881914,9.87955871 114.067482,9.49677939 112.984615,9.49677939 C111.892572,9.49677939 111.059787,9.87955871 110.486235,10.6451288 Z" id="life" opacity="0.602751359"></path>
                </g>
                <g id="logo---dark" transform="translate(38.000000, 0.000000)">
                    <g id="Group-3">
                        <path d="M12.1804055,16.3891468 C4.97345416,19.7532606 0,26.8977605 0,35.167793 C0,46.6731033 9.62587788,56 21.5,56 C33.3741221,56 43,46.6731033 43,35.167793 C43,30.5864557 41.473741,26.350523 38.8870225,22.9113266 C37.923102,25.1715551 36.5391127,26.8215075 34.7028037,27.6754155 C36.0345193,29.8738544 36.7980769,32.4344241 36.7980769,35.167793 C36.7980769,43.3542638 29.9488946,49.9907095 21.5,49.9907095 C13.0511054,49.9907095 6.20192308,43.3542638 6.20192308,35.167793 C6.20192308,30.5479385 8.38315533,26.4217143 11.8021886,23.7032486 C11.3345406,21.4586355 11.4035046,18.9851881 12.1804055,16.3891468 Z" id="Oval-2" fill="#72BE18" fill-rule="nonzero"></path>
                        <path d="M13.4286809,15.8533327 L13.4286809,15.8533327 M21.5,56 C33.3741221,56 43,46.6731033 43,35.167793 C43,30.2338659 41.2297722,25.7005554 38.2711522,22.1316255 C37.3829633,24.4429088 36.0603821,26.1336902 34.2679661,26.9998154 C35.8670043,29.3418087 36.7980769,32.1494462 36.7980769,35.167793 C36.7980769,43.3542638 29.9488946,49.9907095 21.5,49.9907095 C22.2962963,50.8857921 22.6944444,51.7222222 22.6944444,52.5 C22.6944444,53.2777778 22.2962963,54.4444444 21.5,56 Z" id="Oval-2-Copy" fill="#FFFFFF" fill-rule="nonzero" opacity="0.381227355"></path>
                        <path d="M37.2666667,23.8 C37.008439,13.981074 35.0260297,9.45778537 30.6340654,6.57932895 C26.242101,3.70087253 24.000436,3.06698687 22.9333333,0 C23.7465721,3.17333333 23.9498818,6.98133333 23.5432624,11.424 C22.9333333,18.088 25.5104654,23.8 30.2682475,23.8 C33.2840853,23.8 34.8277888,23.0276513 37.2666667,23.8 Z" id="Path-7-Copy-2" fill="#72BE18" transform="translate(30.100000, 11.900000) scale(-1, 1) translate(-30.100000, -11.900000) "></path>
                        <path d="M37.2666667,23.8 C37.008439,13.981074 35.0260297,9.45778537 30.6340654,6.57932895 C26.242101,3.70087253 24.000436,3.06698687 22.9333333,0 C23.7465721,3.17333333 29.5352706,7.81295313 29.9317525,15.2146982 C30.2913953,21.9287114 34.8277888,23.0276513 37.2666667,23.8 Z" id="Path-7-Copy-4" fill="#FFFFFF" opacity="0.168931159" transform="translate(30.100000, 11.900000) scale(-1, 1) translate(-30.100000, -11.900000) "></path>
                        <path d="M30.1,29.4 C29.8417723,19.581074 27.8593631,15.0577854 23.4673987,12.179329 C19.0754343,9.30087253 16.8337693,8.66698687 15.7666667,5.6 C16.5799054,8.77333333 16.7832151,12.5813333 16.3765957,17.024 C15.7666667,23.688 18.5420396,28.0108392 23.2998218,28.0108392 C26.3156595,28.0108392 27.6611221,28.6276513 30.1,29.4 Z" id="Path-7-Copy" fill="#A7DB76"></path>
                        <path d="M30.1,29.4 C29.8417723,19.581074 27.8593631,15.0577854 23.4673987,12.179329 C19.0754343,9.30087253 16.8337693,8.66698687 15.7666667,5.6 C16.5799054,8.77333333 16.5068465,19.2100952 22.3086172,20.8146982 C28.2558449,22.4595304 27.6611221,28.6276513 30.1,29.4 Z" id="Path-7-Copy-3" fill="#FFFFFF" opacity="0.214560688"></path>
                    </g>
                </g>
            </g>
        </g>
    </g>
</svg>